<?xml version="1.0" encoding="UTF-8"?>
<svg width="61px" height="73px" viewBox="0 0 61 73" version="1.1" xmlns="http://www.w3.org/2000/svg" xmlns:xlink="http://www.w3.org/1999/xlink">
    <!-- Generator: Sketch 52.2 (67145) - http://www.bohemiancoding.com/sketch -->
    <title>Layer_6</title>
    <desc>Created with Sketch.</desc>
    <g id="Page-2" stroke="none" stroke-width="1" fill="none" fill-rule="evenodd">
        <g id="infodation_Symbol_RGB(WEB)" transform="translate(-456.000000, -984.000000)" fill="#002B4E">
            <g id="Layer_6" transform="translate(456.000000, 984.000000)">
                <path d="M51.9632133,29.7007479 C51.1909972,29.7007479 50.4576454,29.3898338 49.9000277,28.8271468 C49.3440997,28.2644598 49.0416343,27.5294183 49.0483934,26.758892 C49.0652909,25.1755956 50.3663989,23.8795568 51.9496953,23.8727978 C52.7354294,23.8727978 53.4687812,24.1837119 54.0263989,24.7463989 C54.5840166,25.3090859 54.8847922,26.0441274 54.8780332,26.8146537 C54.8611357,28.3979501 53.5600277,29.6939889 51.9767313,29.7007479 L51.9632133,29.7007479 Z" id="Path"></path>
                <path d="M51.8871745,23.3388366 C50.3444321,23.3067313 49.1497784,22.061385 49.1649861,20.5034349 C49.1801939,18.9556233 50.4154017,17.7423823 51.9767313,17.7423823 L52.0409418,17.7423823 C53.5819945,17.7744875 54.778338,19.0198338 54.7614404,20.5777839 C54.7462327,22.1255956 53.5110249,23.3388366 51.951385,23.3388366 C51.951385,23.3405263 51.8871745,23.3388366 51.8871745,23.3388366 Z" id="Path"></path>
                <path d="M51.964903,35.9511357 C51.2281717,35.9511357 50.5336842,35.6621884 50.006482,35.1349861 C49.4809695,34.6094737 49.1903324,33.9132964 49.1903324,33.1765651 C49.1903324,31.6490305 50.4356787,30.405374 51.9632133,30.405374 L51.9834903,30.405374 C52.7219114,30.4104432 53.4163989,30.7078393 53.9385319,31.2418006 C54.4623546,31.7757618 54.7445429,32.4786981 54.7327147,33.2188089 C54.7107479,34.7142382 53.4755402,35.9393075 51.9801108,35.949446 L51.964903,35.9511357 Z" id="Path"></path>
                <path d="M45.695928,16.8907479 C45.0217175,16.8822992 44.3525762,16.584903 43.8608587,16.0762881 C43.37759,15.5744321 43.1089197,14.9086704 43.1241274,14.2513573 C43.1562327,12.8826593 44.3373684,11.7150416 45.7009972,11.7015235 L45.7246537,11.7015235 C46.3853463,11.7015235 47.0477285,11.9837119 47.539446,12.4771191 C48.0328532,12.9705263 48.3150416,13.6345983 48.3133518,14.2986704 C48.311662,15.6791967 47.1018006,16.8907479 45.7246537,16.8907479 L45.695928,16.8907479 Z" id="Path"></path>
                <path d="M58.3082271,35.6588089 C56.9412188,35.6368421 55.8749861,34.5435734 55.8800554,33.1698061 C55.8851247,31.7859003 56.9767036,30.7010803 58.3656787,30.7010803 L58.4096122,30.7010803 C59.7766205,30.7230471 60.8428532,31.8163158 60.8377839,33.1900831 C60.8327147,34.5739889 59.7411357,35.6588089 58.3521607,35.6588089 L58.3082271,35.6588089 Z" id="Path"></path>
                <path d="M45.7195845,23.0160942 C45.0572022,23.0160942 44.4336842,22.7508033 43.960554,22.2692244 C43.4874238,21.7893352 43.2339612,21.1590582 43.2457895,20.4983657 C43.2677562,19.1567036 44.3796122,18.0651247 45.7212742,18.0651247 L45.7415512,18.0651247 C47.0950416,18.0769529 48.1950693,19.1871191 48.1950693,20.5406094 C48.1950693,21.8940997 47.0933518,23.0025762 45.7398615,23.0144044 L45.7195845,23.0160942 Z" id="Path"></path>
                <path d="M58.2963989,29.0299169 C57.0611911,28.9944321 56.1014127,27.999169 56.113241,26.765651 C56.1250693,25.538892 57.1304709,24.5402493 58.3538504,24.5402493 C58.3758172,24.5402493 58.3977839,24.5402493 58.4197507,24.5402493 C59.6549584,24.5757341 60.6147368,25.5693075 60.6029086,26.8045152 C60.5910803,28.0312742 59.5856787,29.0299169 58.3622992,29.0299169 C58.3606094,29.0316066 58.3183657,29.0316066 58.2963989,29.0299169 Z" id="Path"></path>
                <path d="M39.4759557,16.9279224 C38.7426039,16.9279224 38.0700831,16.6541828 37.5834349,16.1590859 C37.0934072,15.6589197 36.8298061,14.9745706 36.8433241,14.2310803 C36.8703601,12.769446 38.0041828,11.6660388 39.4810249,11.6660388 L39.5165097,11.6660388 C41.0018006,11.684626 42.1136565,12.823518 42.1052078,14.3172576 C42.096759,15.8042382 40.9663158,16.9262327 39.4759557,16.9279224 Z" id="Path"></path>
                <path d="M51.9564543,16.3280609 C50.8277008,16.3246814 49.9372022,15.4375623 49.932133,14.3071191 C49.9270637,13.1749861 50.8057341,12.2777285 51.931108,12.2625208 L51.9598338,12.2625208 C53.0784488,12.2625208 53.9740166,13.1327424 53.9976731,14.2412188 C54.0095014,14.8055956 53.8050416,15.331108 53.4214681,15.7231302 C53.0395845,16.1117729 52.5225208,16.3263712 51.9632133,16.3263712 L51.9564543,16.3263712 L51.9564543,16.3280609 Z" id="Path"></path>
                <path d="M39.4590582,10.2060942 C38.1883657,10.1959557 37.162687,9.15506925 37.1711357,7.88437673 C37.1812742,6.60354571 38.1934349,5.59814404 39.4759557,5.59814404 L39.4928532,5.59814404 C40.761856,5.60828255 41.7875346,6.64916898 41.7790859,7.9198615 C41.7689474,9.20069252 40.7567867,10.2060942 39.4742659,10.2060942 L39.4590582,10.2060942 Z" id="Path"></path>
                <path d="M45.689169,28.6378947 C44.6989751,28.6176177 43.8473407,27.7389474 43.8676177,26.7555125 C43.886205,25.7839058 44.7513573,24.9322715 45.716205,24.9322715 L45.7483102,24.9322715 C46.7385042,24.9525485 47.5901385,25.8312188 47.5715512,26.8146537 C47.552964,27.7862604 46.6878116,28.6378947 45.722964,28.6378947 C45.722964,28.6378947 45.689169,28.6378947 45.689169,28.6378947 Z" id="Path"></path>
                <path d="M33.0768698,10.1722992 C31.8839058,10.1722992 30.8244321,9.12127424 30.8109141,7.92493075 C30.8041551,7.34703601 31.049169,6.76407202 31.4834349,6.32642659 C31.9177008,5.88709141 32.5006648,5.63531856 33.0802493,5.63531856 C34.261385,5.64038781 35.3005817,6.64409972 35.3495845,7.82523546 C35.373241,8.39637119 35.1468144,8.98102493 34.7277562,9.42880886 C34.3002493,9.8867313 33.7189751,10.1570914 33.1309418,10.1722992 L33.0768698,10.1722992 Z" id="Path"></path>
                <path d="M33.00759,16.4953463 C32.4077285,16.4784488 31.8602493,16.2351247 31.4665374,15.812687 C31.0660665,15.3851801 30.8599169,14.8123546 30.8835734,14.1989751 C30.9308864,13.0009418 31.8754571,12.098615 33.0819391,12.098615 L33.1022161,12.098615 C33.7088366,12.1036842 34.2647645,12.3368698 34.668615,12.7525485 C35.0741551,13.1699169 35.292133,13.7359834 35.2803047,14.3442936 C35.2566482,15.5710526 34.3103878,16.497036 33.0802493,16.497036 C33.054903,16.4953463 33.0329363,16.4953463 33.00759,16.4953463 Z" id="Path"></path>
                <path d="M58.3099169,22.1492521 C57.4092798,22.1272853 56.7384488,21.424349 56.750277,20.5152632 C56.763795,19.614626 57.454903,18.9353463 58.3606094,18.9353463 C58.3893352,18.9353463 58.4180609,18.9353463 58.4484765,18.937036 C59.3457341,18.9792798 59.9979778,19.6991136 59.9641828,20.6132687 C59.9320776,21.5054571 59.2544875,22.1509418 58.3538504,22.1509418 L58.3099169,22.1492521 Z" id="Path"></path>
                <path d="M45.702687,9.48795014 C45.2650416,9.48457064 44.8645706,9.31897507 44.5756233,9.02495845 C44.2866759,8.72925208 44.1295291,8.32540166 44.1345983,7.88606648 C44.1413573,6.99049861 44.8240166,6.31628809 45.7212742,6.31628809 C46.6388089,6.32473684 47.3130194,7.01246537 47.3062604,7.91817175 C47.2995014,8.81204986 46.6168421,9.48795014 45.7195845,9.48795014 L45.702687,9.48795014 Z" id="Path"></path>
                <path d="M39.4252632,22.3976454 C38.9132687,22.3841274 38.4485873,22.1796676 38.1140166,21.8214404 C37.7760665,21.4598338 37.6003324,20.9765651 37.6206094,20.4611911 C37.6594737,19.4490305 38.457036,18.6852632 39.4759557,18.6852632 C39.9896399,18.6852632 40.4610803,18.8778947 40.8074792,19.2276731 C41.1538781,19.5774515 41.3397507,20.0539612 41.3329917,20.5676454 C41.3194737,21.6102216 40.5219114,22.3976454 39.4759557,22.3976454 L39.4252632,22.3976454 Z" id="Path"></path>
                <path d="M26.7977562,9.67720222 C26.3144875,9.66537396 25.8700831,9.46598338 25.5405817,9.11620499 C25.2127701,8.76642659 25.0421053,8.31019391 25.0623823,7.83199446 C25.1012465,6.88742382 25.8717729,6.13886427 26.8180332,6.12872576 L26.8366205,6.12872576 C27.3114404,6.12872576 27.7592244,6.31459834 28.093795,6.65254848 C28.4300554,6.99049861 28.6125485,7.43828255 28.609169,7.91479224 C28.60241,8.88639889 27.8065374,9.67720222 26.8366205,9.67720222 L26.7977562,9.67720222 Z" id="Path"></path>
                <path d="M45.7128255,34.4810526 C45.3427701,34.4793629 45.0098892,34.3475623 44.7767036,34.112687 C44.543518,33.8761219 44.4167867,33.543241 44.4184765,33.1714958 C44.421856,32.4094183 44.9575069,31.8771468 45.7195845,31.8771468 C46.4934903,31.8805263 47.0257618,32.4195568 47.0223823,33.1867036 C47.0190028,33.9487812 46.4833518,34.4810526 45.7212742,34.4810526 L45.7128255,34.4810526 Z" id="Path"></path>
                <path d="M26.8788643,15.9833518 C26.8501385,15.9833518 26.819723,15.981662 26.7893075,15.9799723 C25.8819114,15.9242105 25.2550139,15.324349 25.1553186,14.4152632 C25.1080055,13.9945152 25.2533241,13.5551801 25.55241,13.2087812 C25.8717729,12.8387258 26.3212465,12.6190582 26.7842382,12.6038504 L26.8315512,12.6038504 C27.7254294,12.6038504 28.5162327,13.3845152 28.5280609,14.2767036 C28.5331302,14.714349 28.3506371,15.155374 28.0245152,15.4848753 C27.7119114,15.8025485 27.2945429,15.9833518 26.8788643,15.9833518 Z" id="Path"></path>
                <path d="M1.37883657,2.96720222 C0.653933518,2.93847645 0.152077562,2.45182825 0.0996952909,1.72692521 C0.0743490305,1.37038781 0.199390582,1.01722992 0.442714681,0.75700831 C0.686038781,0.496786704 1.02905817,0.346398892 1.38559557,0.346398892 C1.40249307,0.346398892 1.41939058,0.346398892 1.43628809,0.348088643 C2.14767313,0.375124654 2.63939058,0.834736842 2.71880886,1.54612188 L2.72218837,1.58160665 C2.73570637,1.97024931 2.60390582,2.3200277 2.35044321,2.58024931 C2.10711911,2.83033241 1.78268698,2.96889197 1.43290859,2.96889197 C1.41601108,2.96889197 1.39742382,2.96889197 1.37883657,2.96720222 Z" id="Path"></path>
                <path d="M1.38221607,9.26152355 C0.653933518,9.23279778 0.152077562,8.74614958 0.101385042,8.02124654 C0.0760387812,7.66470914 0.201080332,7.31155125 0.444404432,7.05132964 C0.687728532,6.79110803 1.03074792,6.64072022 1.38728532,6.64072022 C1.40418283,6.64072022 1.42108033,6.64072022 1.43797784,6.64240997 C2.14936288,6.66944598 2.64108033,7.12905817 2.72049861,7.84044321 L2.72387812,7.87592798 C2.73739612,8.26457064 2.60559557,8.61434903 2.35213296,8.87457064 C2.11049861,9.12465374 1.78437673,9.2632133 1.43459834,9.2632133 C1.41601108,9.2632133 1.39911357,9.2632133 1.38221607,9.26152355 Z" id="Path"></path>
                <path d="M1.38221607,15.5558449 C0.653933518,15.5271191 0.152077562,15.0404709 0.101385042,14.3155679 C0.0760387812,13.9590305 0.201080332,13.6058726 0.444404432,13.345651 C0.687728532,13.0854294 1.03074792,12.9367313 1.38728532,12.9367313 C1.40418283,12.9367313 1.42108033,12.9367313 1.43797784,12.9367313 C2.14936288,12.9637673 2.64108033,13.4233795 2.72049861,14.1347645 L2.72387812,14.1702493 C2.73739612,14.558892 2.60559557,14.9086704 2.35213296,15.168892 C2.11049861,15.4189751 1.78437673,15.5575346 1.43459834,15.5575346 C1.41601108,15.5575346 1.39911357,15.5558449 1.38221607,15.5558449 Z" id="Path"></path>
                <path d="M1.37883657,21.8501662 C0.653933518,21.8214404 0.152077562,21.3347922 0.0996952909,20.6098892 C0.0743490305,20.2533518 0.199390582,19.9001939 0.442714681,19.6399723 C0.686038781,19.3797507 1.02905817,19.2293629 1.38559557,19.2293629 L1.43290859,19.2293629 C2.14767313,19.2580886 2.63770083,19.7160111 2.71711911,20.4273961 L2.72049861,20.4628809 C2.73401662,20.8515235 2.60221607,21.2013019 2.35044321,21.4615235 C2.10711911,21.7116066 1.78268698,21.8501662 1.43290859,21.8501662 C1.41601108,21.8501662 1.39742382,21.8501662 1.37883657,21.8501662 Z" id="Path"></path>
                <path d="M1.37883657,28.1444875 C0.653933518,28.1157618 0.152077562,27.6291136 0.0996952909,26.9042105 C0.0743490305,26.5476731 0.199390582,26.1945152 0.442714681,25.9342936 C0.686038781,25.674072 1.02905817,25.5236842 1.38559557,25.5236842 L1.43290859,25.5236842 C2.14767313,25.55241 2.63770083,26.0103324 2.71711911,26.7217175 L2.72049861,26.7572022 C2.73401662,27.1458449 2.60221607,27.4956233 2.35044321,27.7558449 C2.10711911,28.0076177 1.78099723,28.1444875 1.43290859,28.1444875 C1.41601108,28.1444875 1.39742382,28.1444875 1.37883657,28.1444875 Z" id="Path"></path>
                <path d="M1.37883657,34.4388089 C0.653933518,34.4100831 0.152077562,33.9234349 0.0996952909,33.1985319 C0.0743490305,32.8419945 0.199390582,32.4888366 0.442714681,32.228615 C0.686038781,31.9683934 1.02905817,31.8180055 1.38559557,31.8180055 C1.40249307,31.8180055 1.41939058,31.8180055 1.43628809,31.8196953 C2.14767313,31.8467313 2.63939058,32.3063435 2.71880886,33.0177285 L2.72218837,33.0532133 C2.73570637,33.441856 2.60390582,33.7916343 2.35044321,34.051856 C2.10711911,34.3019391 1.78268698,34.4404986 1.43290859,34.4404986 C1.41601108,34.4388089 1.39742382,34.4388089 1.37883657,34.4388089 Z" id="Path"></path>
                <path d="M1.38221607,40.7314404 C0.653933518,40.7027147 0.152077562,40.2160665 0.101385042,39.4911634 C0.0760387812,39.134626 0.201080332,38.7814681 0.444404432,38.5212465 C0.687728532,38.2610249 1.03074792,38.1106371 1.38728532,38.1106371 C1.40418283,38.1106371 1.42108033,38.1106371 1.43797784,38.1123269 C2.14936288,38.1393629 2.64108033,38.5989751 2.72049861,39.3103601 L2.72387812,39.3458449 C2.73739612,39.7344875 2.60559557,40.0842659 2.35213296,40.3444875 C2.11049861,40.5945706 1.78437673,40.7331302 1.43459834,40.7331302 C1.41601108,40.7331302 1.39911357,40.7331302 1.38221607,40.7314404 Z" id="Path"></path>
                <path d="M1.38221607,47.0257618 C0.653933518,46.997036 0.152077562,46.5103878 0.101385042,45.7854848 C0.0760387812,45.4289474 0.201080332,45.0757895 0.444404432,44.8155679 C0.687728532,44.5553463 1.03074792,44.4049584 1.38728532,44.4049584 C1.40418283,44.4049584 1.42108033,44.4049584 1.43797784,44.4049584 C2.14936288,44.4319945 2.64108033,44.8916066 2.72049861,45.6029917 L2.72387812,45.6384765 C2.73739612,46.0271191 2.60559557,46.3768975 2.35213296,46.6371191 C2.11049861,46.8872022 1.78437673,47.0257618 1.43459834,47.0257618 C1.41601108,47.0274515 1.39911357,47.0274515 1.38221607,47.0257618 Z" id="Path"></path>
                <path d="M1.37883657,53.3200831 C0.653933518,53.2913573 0.152077562,52.8047091 0.0996952909,52.0798061 C0.0743490305,51.7232687 0.199390582,51.3701108 0.442714681,51.1098892 C0.686038781,50.8496676 1.02905817,50.6992798 1.38559557,50.6992798 L1.43290859,50.6992798 C2.14767313,50.7280055 2.63770083,51.185928 2.71711911,51.897313 L2.72049861,51.9327978 C2.73401662,52.3214404 2.60221607,52.6712188 2.35044321,52.9314404 C2.10711911,53.1815235 1.78268698,53.3200831 1.43290859,53.3200831 C1.41601108,53.3217729 1.39742382,53.3217729 1.37883657,53.3200831 Z" id="Path"></path>
                <path d="M1.37883657,59.6144044 C0.653933518,59.5856787 0.152077562,59.0990305 0.0996952909,58.3741274 C0.0743490305,58.01759 0.199390582,57.6644321 0.442714681,57.4042105 C0.686038781,57.1439889 1.02905817,56.9936011 1.38559557,56.9936011 L1.43290859,56.9936011 C2.14767313,57.0223269 2.63770083,57.4802493 2.71711911,58.1916343 L2.72049861,58.2271191 C2.73401662,58.6157618 2.60221607,58.9655402 2.35044321,59.2257618 C2.10711911,59.4775346 1.78099723,59.6144044 1.43290859,59.6144044 C1.41601108,59.6160942 1.39742382,59.6144044 1.37883657,59.6144044 Z" id="Path"></path>
                <path d="M1.38221607,65.9087258 C0.653933518,65.88 0.152077562,65.3933518 0.101385042,64.6684488 C0.0760387812,64.3119114 0.201080332,63.9587535 0.444404432,63.6985319 C0.687728532,63.4383102 1.03074792,63.2879224 1.38728532,63.2879224 C1.40418283,63.2879224 1.42108033,63.2879224 1.43797784,63.2896122 C2.14936288,63.3166482 2.64108033,63.7762604 2.72049861,64.4876454 L2.72387812,64.5231302 C2.73739612,64.9117729 2.60559557,65.2615512 2.35213296,65.5217729 C2.10880886,65.771856 1.78437673,65.9104155 1.43459834,65.9104155 C1.41601108,65.9087258 1.39911357,65.9087258 1.38221607,65.9087258 Z" id="Path"></path>
                <path d="M33.0532133,21.851856 C32.3249307,21.8231302 31.8230748,21.336482 31.7706925,20.6115789 C31.7453463,20.2550416 31.8703878,19.9018837 32.1137119,19.641662 C32.357036,19.3814404 32.7000554,19.2327424 33.0565928,19.2327424 C33.0734903,19.2327424 33.0903878,19.2327424 33.1055956,19.2327424 C33.8169806,19.2597784 34.3070083,19.7193906 34.3881163,20.4307756 L34.3914958,20.4814681 C34.4033241,20.854903 34.2715235,21.2046814 34.0197507,21.464903 C33.7764266,21.7166759 33.4503047,21.8535457 33.1022161,21.8535457 C33.0870083,21.851856 33.0701108,21.851856 33.0532133,21.851856 Z" id="Path"></path>
                <path d="M26.8078947,2.96889197 C26.0796122,2.9401662 25.5777562,2.45351801 25.525374,1.72861496 C25.5000277,1.37207756 25.6250693,1.01891967 25.8683934,0.758698061 C26.1117175,0.498476454 26.4547368,0.348088643 26.812964,0.348088643 C26.8298615,0.348088643 26.846759,0.348088643 26.8619668,0.348088643 C27.5733518,0.375124654 28.0650693,0.834736842 28.1444875,1.54612188 L28.147867,1.58160665 C28.161385,1.97024931 28.0295845,2.3200277 27.7778116,2.58024931 C27.5344875,2.83202216 27.2083657,2.96889197 26.860277,2.96889197 C26.8416898,2.96889197 26.8247922,2.96889197 26.8078947,2.96889197 Z" id="Path"></path>
                <path d="M39.4472299,2.96889197 C38.7189474,2.9401662 38.2170914,2.45351801 38.1663989,1.72861496 C38.1410526,1.37207756 38.2660942,1.01891967 38.5094183,0.758698061 C38.7527424,0.498476454 39.0957618,0.348088643 39.4539889,0.348088643 C39.4708864,0.348088643 39.4877839,0.348088643 39.5029917,0.348088643 C40.2143767,0.375124654 40.7060942,0.834736842 40.7855125,1.54612188 L40.788892,1.58160665 C40.80241,1.97024931 40.6706094,2.3200277 40.4188366,2.58024931 C40.1755125,2.83202216 39.8493906,2.96889197 39.5013019,2.96889197 C39.4810249,2.96889197 39.4641274,2.96889197 39.4472299,2.96889197 Z" id="Path"></path>
                <path d="M33.0532133,3.27304709 C32.1390582,3.23756233 31.5324377,2.64952909 31.4682271,1.73706371 C31.4378116,1.29941828 31.5898892,0.865152355 31.8889751,0.544099723 C32.1880609,0.223047091 32.6104986,0.0405540166 33.048144,0.0405540166 C33.0684211,0.0405540166 33.0903878,0.0405540166 33.1106648,0.0422437673 C34.0045429,0.0760387812 34.5976454,0.631966759 34.6973407,1.52753463 L34.7007202,1.56301939 C34.7176177,2.04290859 34.5537119,2.47548476 34.2427978,2.79822715 C33.9454017,3.10576177 33.5449307,3.27473684 33.1174238,3.27473684 C33.0954571,3.27473684 33.0734903,3.27473684 33.0532133,3.27304709 Z" id="Path"></path>
                <path d="M51.9361773,9.21252078 C51.2112742,9.18379501 50.7077285,8.69714681 50.657036,7.97224377 C50.6316898,7.61570637 50.7567313,7.26254848 51.0000554,7.00232687 C51.2433795,6.74210526 51.5863989,6.59171745 51.944626,6.59171745 L51.9919391,6.59171745 C52.7067036,6.62044321 53.1967313,7.07836565 53.2761496,7.78975069 L53.2795291,7.84044321 C53.2913573,8.21387812 53.1595568,8.56365651 52.9077839,8.82387812 C52.6661496,9.07396122 52.3400277,9.21252078 51.9902493,9.21252078 C51.971662,9.21421053 51.9530748,9.21421053 51.9361773,9.21252078 Z" id="Path"></path>
                <path d="M51.951385,48.678338 C50.3680886,48.6698892 49.0669806,47.3755402 49.0500831,45.7922438 C49.0416343,45.0217175 49.3440997,44.2866759 49.9017175,43.7239889 C50.4593352,43.1613019 51.1909972,42.8503878 51.964903,42.8503878 C53.5617175,42.8588366 54.8645152,44.1531856 54.879723,45.7381717 C54.8881717,46.5086981 54.5857064,47.2437396 54.0280886,47.8064266 C53.4704709,48.3691136 52.7388089,48.6800277 51.964903,48.6800277 C51.964903,48.678338 51.951385,48.678338 51.951385,48.678338 Z" id="Path"></path>
                <path d="M51.9767313,54.8087535 C50.4154017,54.8087535 49.1818837,53.5955125 49.1649861,52.0477008 C49.1497784,50.4897507 50.3444321,49.2444044 51.8871745,49.2122992 L51.951385,49.2122992 C53.5127147,49.2122992 54.7462327,50.4255402 54.7631302,51.9733518 C54.778338,53.5313019 53.5836842,54.7766482 52.0426316,54.8087535 L51.9767313,54.8087535 Z" id="Path"></path>
                <path d="M51.964903,42.1423823 C50.4373684,42.1423823 49.1937119,40.8987258 49.1920222,39.3711911 C49.1920222,38.6344598 49.4809695,37.9382825 50.006482,37.4127701 C50.5319945,36.8872576 51.2281717,36.5983102 51.964903,36.5983102 L51.9818006,36.5983102 C53.4789197,36.6084488 54.7141274,37.8318283 54.7344044,39.3289474 C54.7445429,40.0690582 54.4623546,40.7719945 53.9402216,41.3059557 C53.4180886,41.8399169 52.7236011,42.137313 51.9851801,42.1423823 L51.964903,42.1423823 Z" id="Path"></path>
                <path d="M45.7009972,60.8496122 C44.3373684,60.8360942 43.1562327,59.6684765 43.1241274,58.2997784 C43.1089197,57.6407756 43.37759,56.9767036 43.8608587,56.4748476 C44.3525762,55.9645429 45.0200277,55.6688366 45.695928,55.6603878 L45.7263435,55.6603878 C47.1034903,55.6603878 48.3133518,56.8719391 48.3150416,58.2524654 C48.3167313,58.9165374 48.0328532,59.5806094 47.5411357,60.0740166 C47.0494183,60.5674238 46.387036,60.8496122 45.7263435,60.8496122 L45.7009972,60.8496122 Z" id="Path"></path>
                <path d="M58.3639889,41.8500554 C56.9750139,41.8500554 55.8834349,40.7652355 55.8783657,39.3813296 C55.8732964,38.0075623 56.9395291,36.9142936 58.3065374,36.8923269 L58.3504709,36.8923269 C59.739446,36.8923269 60.8310249,37.9771468 60.8360942,39.3610526 C60.8411634,40.7331302 59.773241,41.8263989 58.4079224,41.8500554 L58.3639889,41.8500554 Z" id="Path"></path>
                <path d="M45.7195845,54.4843213 C44.3779224,54.4843213 43.2677562,53.3927424 43.2440997,52.0510803 C43.2322715,51.3903878 43.4874238,50.7618006 43.9588643,50.2802216 C44.4319945,49.7986427 45.0572022,49.5350416 45.7178947,49.5350416 L45.7381717,49.5350416 C47.091662,49.5468698 48.1916898,50.6553463 48.1933795,52.0088366 C48.1933795,53.3623269 47.0933518,54.4724931 45.7398615,54.4843213 L45.7195845,54.4843213 Z" id="Path"></path>
                <path d="M58.3538504,48.0091967 C57.1287812,48.0091967 56.1250693,47.010554 56.113241,45.783795 C56.1014127,44.5485873 57.0595014,43.5550139 58.2963989,43.5195291 C58.3183657,43.5195291 58.3403324,43.5195291 58.3622992,43.5195291 C59.5856787,43.5195291 60.5910803,44.5181717 60.6029086,45.7449307 C60.6147368,46.9801385 59.6549584,47.9737119 58.4197507,48.0091967 C58.3977839,48.0091967 58.3758172,48.0091967 58.3538504,48.0091967 Z" id="Path"></path>
                <path d="M39.4827147,60.885097 C38.0058726,60.885097 36.8720499,59.7816898 36.8450139,58.3200554 C36.8314958,57.5765651 37.0934072,56.8905263 37.5851247,56.3920499 C38.0717729,55.8969529 38.7426039,55.6232133 39.4776454,55.6232133 C40.9680055,55.6232133 42.0984488,56.7468975 42.1085873,58.2338781 C42.117036,59.7276177 41.0051801,60.8665097 39.5215789,60.885097 L39.4827147,60.885097 Z" id="Path"></path>
                <path d="M51.931108,60.2869252 C50.8040443,60.2717175 49.925374,59.3744598 49.932133,58.2423269 C49.9372022,57.1135734 50.8260111,56.2264543 51.9564543,56.221385 C52.5225208,56.221385 53.0395845,56.4359834 53.4214681,56.824626 C53.8050416,57.2166482 54.0095014,57.7421607 53.9976731,58.3065374 C53.9740166,59.4167036 53.0801385,60.2852355 51.9615235,60.2852355 L51.931108,60.2869252 Z" id="Path"></path>
                <path d="M39.4759557,66.9513019 C38.1934349,66.9513019 37.1812742,65.94759 37.1711357,64.666759 C37.162687,63.3960665 38.1866759,62.3534903 39.4573684,62.3450416 L39.4742659,62.3450416 C40.7365097,62.3450416 41.7706371,63.3707202 41.7790859,64.6312742 C41.7875346,65.9019668 40.7635457,66.9445429 39.4928532,66.9529917 L39.4911634,66.9529917 L39.4759557,66.9529917 L39.4759557,66.9513019 Z" id="Path"></path>
                <path d="M45.7178947,47.6171745 C44.7513573,47.6171745 43.8878947,46.7655402 43.8676177,45.7939335 C43.8473407,44.8104986 44.6989751,43.9318283 45.689169,43.9115512 L45.7212742,43.9115512 C46.6878116,43.9115512 47.5512742,44.7631856 47.5715512,45.7347922 C47.5918283,46.7182271 46.7401939,47.5968975 45.7483102,47.6171745 L45.7178947,47.6171745 Z" id="Path"></path>
                <path d="M33.0802493,66.9158172 C32.5006648,66.9158172 31.9177008,66.6640443 31.4834349,66.2230194 C31.049169,65.785374 30.8041551,65.20241 30.8109141,64.6245152 C30.8244321,63.426482 31.8822161,62.3754571 33.0751801,62.3754571 L33.1258726,62.3754571 C33.7172853,62.3906648 34.3002493,62.6627147 34.7260665,63.1189474 C35.1451247,63.5684211 35.3715512,64.151385 35.3478947,64.7225208 C35.298892,65.9053463 34.2630748,66.9073684 33.0870083,66.9124377 L33.0802493,66.9124377 L33.0802493,66.9158172 Z" id="Path"></path>
                <path d="M33.0819391,60.4525208 C31.8754571,60.4525208 30.9308864,59.5501939 30.8835734,58.3521607 C30.8599169,57.7404709 31.0660665,57.1676454 31.4665374,56.7384488 C31.8619391,56.3160111 32.4094183,56.072687 33.0092798,56.0557895 C33.0329363,56.0557895 33.0565928,56.0540997 33.0802493,56.0540997 C34.3120776,56.0540997 35.2566482,56.9783934 35.2803047,58.2068421 C35.292133,58.8151524 35.0741551,59.3812188 34.668615,59.7985873 C34.2647645,60.2142659 33.7088366,60.4474515 33.1039058,60.4525208 L33.1022161,60.4525208 L33.0819391,60.4525208 Z" id="Path"></path>
                <path d="M58.3606094,53.6174792 C57.454903,53.6174792 56.7621053,52.9381994 56.750277,52.0375623 C56.736759,51.1284765 57.40759,50.4255402 58.3099169,50.4018837 L58.3555402,50.4018837 C59.2561773,50.4018837 59.9337673,51.0490582 59.9658726,51.9395568 C59.9979778,52.8537119 59.3457341,53.5735457 58.4501662,53.6157895 C58.4197507,53.6157895 58.3910249,53.6174792 58.3606094,53.6174792 Z" id="Path"></path>
                <path d="M45.7212742,66.2331579 C44.8240166,66.2331579 44.1413573,65.5589474 44.1345983,64.6633795 C44.1312188,64.2240443 44.2883657,63.8201939 44.5756233,63.5244875 C44.8645706,63.2287812 45.2650416,63.0648753 45.702687,63.0614958 C46.6151524,63.0614958 47.2978116,63.7357064 47.3045706,64.6312742 C47.3079501,65.0706094 47.1508033,65.4744598 46.861856,65.7701662 C46.5729086,66.0658726 46.1724377,66.2297784 45.7347922,66.2331579 L45.7212742,66.2331579 Z" id="Path"></path>
                <path d="M39.4742659,53.8658726 C38.4553463,53.8658726 37.6594737,53.1021053 37.6189197,52.0899446 C37.5986427,51.5745706 37.7743767,51.0913019 38.1123269,50.7296953 C38.4485873,50.3714681 38.9115789,50.1670083 39.4201939,50.1534903 L39.4708864,50.1534903 C40.5185319,50.1534903 41.3160942,50.9409141 41.3296122,51.9834903 C41.3363712,52.4971745 41.1488089,52.9736842 40.8040997,53.3234626 C40.4593906,53.673241 39.9862604,53.8658726 39.4742659,53.8658726 Z" id="Path"></path>
                <path d="M26.8214127,66.42241 C25.8734626,66.4122715 25.1012465,65.6637119 25.064072,64.7191413 C25.043795,64.2409418 25.2144598,63.7863989 25.5422715,63.4366205 C25.8700831,63.0851524 26.3161773,62.8857618 26.7960665,62.8739335 L26.8366205,62.8739335 C27.8099169,62.8739335 28.6057895,63.6647368 28.6125485,64.6363435 C28.615928,65.1128532 28.4317452,65.5606371 28.0971745,65.8985873 C27.7609141,66.2365374 27.3148199,66.42241 26.84,66.42241 L26.8214127,66.42241 Z" id="Path"></path>
                <path d="M45.7195845,40.6722992 C44.9558172,40.6722992 44.421856,40.1400277 44.4184765,39.3779501 C44.4167867,39.0078947 44.543518,38.6733241 44.7767036,38.436759 C45.0098892,38.2001939 45.3427701,38.0700831 45.7128255,38.0683934 C46.4833518,38.0683934 47.0190028,38.6006648 47.0223823,39.3627424 C47.0257618,40.1298892 46.4934903,40.6689197 45.7280332,40.6722992 L45.7195845,40.6722992 Z" id="Path"></path>
                <path d="M26.7893075,59.9455956 C26.3229363,59.9303878 25.8734626,59.7090305 25.55241,59.3389751 C25.2533241,58.9942659 25.1080055,58.5549307 25.1553186,58.1324931 C25.2567036,57.2234072 25.8819114,56.6235457 26.7893075,56.5677839 C26.819723,56.5660942 26.8484488,56.5644044 26.8788643,56.5644044 C27.2945429,56.5644044 27.7119114,56.7468975 28.0245152,57.0628809 C28.3506371,57.3923823 28.5331302,57.8334072 28.5280609,58.2710526 C28.5179224,59.1615512 27.7271191,59.9439058 26.8366205,59.9439058 L26.7893075,59.9455956 Z" id="Path"></path>
                <path d="M1.38728532,72.2030471 C1.03074792,72.2030471 0.686038781,72.054349 0.444404432,71.7924377 C0.201080332,71.5322161 0.0777285319,71.1790582 0.101385042,70.8225208 C0.152077562,70.0976177 0.655623269,69.6109695 1.38221607,69.5822438 C1.39911357,69.5822438 1.41601108,69.580554 1.43459834,69.580554 C1.78437673,69.580554 2.11049861,69.7191136 2.35213296,69.9691967 C2.60390582,70.2294183 2.73570637,70.5791967 2.72387812,70.9526316 L2.72218837,70.9881163 C2.64108033,71.7163989 2.14936288,72.1743213 1.43966759,72.2013573 C1.42108033,72.2030471 1.40418283,72.2030471 1.38728532,72.2030471 Z" id="Path"></path>
                <path d="M33.0582825,53.3200831 C32.7017452,53.3200831 32.357036,53.171385 32.1154017,52.9094737 C31.8720776,52.6492521 31.7487258,52.2960942 31.7723823,51.9395568 C31.8230748,51.2146537 32.3266205,50.7280055 33.0532133,50.6992798 C33.0718006,50.6992798 33.0886981,50.69759 33.1055956,50.69759 C33.455374,50.69759 33.7814958,50.8361496 34.0231302,51.0862327 C34.274903,51.3464543 34.4067036,51.6962327 34.3948753,52.0696676 L34.3914958,52.1203601 C34.3120776,52.8317452 33.8203601,53.2896676 33.1106648,53.3183934 C33.0903878,53.3200831 33.0734903,53.3200831 33.0582825,53.3200831 Z" id="Path"></path>
                <path d="M26.812964,72.2030471 C26.4564266,72.2030471 26.1117175,72.054349 25.8683934,71.7924377 C25.6250693,71.5322161 25.5017175,71.1790582 25.5270637,70.8225208 C25.5777562,70.0976177 26.0813019,69.6109695 26.8078947,69.5822438 C26.826482,69.5822438 26.8433795,69.580554 26.860277,69.580554 C27.2100554,69.580554 27.5361773,69.7191136 27.7778116,69.9691967 C28.0295845,70.2294183 28.161385,70.5791967 28.1495568,70.9526316 L28.147867,70.9864266 C28.066759,71.7147091 27.5750416,72.1726316 26.8653463,72.2013573 C26.8484488,72.2030471 26.8298615,72.2030471 26.812964,72.2030471 Z" id="Path"></path>
                <path d="M39.4506094,72.2030471 C39.094072,72.2030471 38.7493629,72.054349 38.5060388,71.7941274 C38.2627147,71.5339058 38.1393629,71.1807479 38.1630194,70.8242105 C38.2137119,70.0993075 38.7172576,69.6126593 39.4438504,69.5839335 C39.4624377,69.5839335 39.4793352,69.5822438 39.4962327,69.5822438 C39.8460111,69.5822438 40.172133,69.7208033 40.4137673,69.9708864 C40.6655402,70.231108 40.7973407,70.5808864 40.7855125,70.9543213 L40.7838227,70.9881163 C40.7027147,71.7163989 40.2109972,72.1743213 39.5013019,72.2030471 C39.4860942,72.2030471 39.4691967,72.2030471 39.4506094,72.2030471 Z" id="Path"></path>
                <path d="M33.048144,72.508892 C32.6088089,72.508892 32.1863712,72.3247091 31.8872853,72.0053463 C31.5898892,71.6859834 31.4361219,71.2500277 31.4665374,70.8123823 C31.5307479,69.9016066 32.1373684,69.3135734 33.0515235,69.2763989 C33.0734903,69.2763989 33.0954571,69.2747091 33.1157341,69.2747091 C33.543241,69.2747091 33.9437119,69.4436842 34.241108,69.7512188 C34.5520222,70.0739612 34.715928,70.5065374 34.7007202,70.9695291 L34.6990305,71.0050139 C34.5976454,71.9157895 34.0045429,72.4717175 33.1106648,72.5055125 C33.0886981,72.508892 33.0684211,72.508892 33.048144,72.508892 Z" id="Path"></path>
                <path d="M51.9429363,65.9577285 C51.5863989,65.9577285 51.2416898,65.8090305 50.9983657,65.5471191 C50.7550416,65.2868975 50.6316898,64.9337396 50.657036,64.5772022 C50.7077285,63.8522992 51.2112742,63.365651 51.937867,63.3369252 C51.9547645,63.3369252 51.971662,63.3352355 51.9902493,63.3352355 C52.3400277,63.3352355 52.6661496,63.473795 52.9077839,63.7238781 C53.1595568,63.9840997 53.2913573,64.3338781 53.2795291,64.707313 L53.2761496,64.7580055 C53.1967313,65.4693906 52.7050139,65.9290028 51.9953186,65.9560388 C51.9784211,65.9577285 51.9598338,65.9577285 51.9429363,65.9577285 Z" id="Path"></path>
                <path d="M14.084072,61.1165928 C13.3304432,61.1165928 12.5886427,60.7989197 12.0462327,60.2463712 C11.5004432,59.6904432 11.2081163,58.9672299 11.2216343,58.2119114 C11.2520499,56.6573407 12.5362604,55.3917175 14.084072,55.3917175 C14.8377008,55.3917175 15.5811911,55.7093906 16.1219114,56.2619391 C16.6677008,56.817867 16.9600277,57.5410803 16.9448199,58.2963989 C16.9160942,59.8509695 15.6335734,61.1165928 14.084072,61.1165928 Z" id="Path"></path>
                <path d="M14.0823823,42.2336288 C13.332133,42.2336288 12.5937119,41.9193352 12.0529917,41.3701662 C11.5072022,40.815928 11.2114958,40.0944044 11.2233241,39.3390859 C11.2469806,37.7845152 12.5261219,36.5155125 14.077313,36.5104432 C14.8377008,36.5104432 15.5778116,36.8247368 16.1185319,37.3739058 C16.6643213,37.928144 16.9600277,38.6496676 16.9481994,39.4049861 C16.9245429,40.9595568 15.6454017,42.2285596 14.0942105,42.2336288 L14.0823823,42.2336288 Z" id="Path"></path>
                <path d="M14.1026593,48.6276454 C14.0688643,48.6276454 14.0350693,48.6276454 14.0012742,48.6259557 C12.4399446,48.5668144 11.1929086,47.2657064 11.2216343,45.722964 C11.2503601,44.1937396 12.5531579,42.9010803 14.0654848,42.9010803 C14.0992798,42.9010803 14.1330748,42.9010803 14.1668698,42.9027701 C15.7281994,42.9619114 16.9752355,44.2630194 16.9465097,45.8057618 C16.9177839,47.3349861 15.6166759,48.6276454 14.1026593,48.6276454 Z" id="Path"></path>
                <path d="M14.084072,54.8712742 C13.332133,54.8712742 12.5920222,54.5552909 12.0496122,54.0061219 C11.5038227,53.4501939 11.2098061,52.7286704 11.2216343,51.9733518 C11.2469806,50.4187812 12.5295014,49.1514681 14.0790028,49.1480886 C14.8360111,49.1480886 15.5778116,49.464072 16.1185319,50.013241 C16.6643213,50.569169 16.958338,51.2906925 16.9465097,52.0460111 C16.9211634,53.6005817 15.6386427,54.8678947 14.0891413,54.8712742 L14.084072,54.8712742 Z" id="Path"></path>
                <path d="M14.084072,67.2689751 C13.3743767,67.2689751 12.7103047,66.9935457 12.2168975,66.4933795 C11.7218006,65.9915235 11.4531302,65.3206925 11.4615789,64.6076177 C11.4801662,63.1848476 12.6562327,62.0256787 14.084072,62.0256787 C14.7937673,62.0256787 15.4578393,62.301108 15.9512465,62.8012742 C16.4463435,63.3031302 16.7150139,63.9739612 16.7065651,64.687036 C16.6879778,66.1114958 15.5119114,67.2689751 14.084072,67.2689751 Z" id="Path"></path>
                <path d="M7.6934349,41.3769252 C6.5866482,41.3769252 5.70459834,40.5117729 5.68601108,39.4083657 C5.67587258,38.8625762 5.87864266,38.3505817 6.25545706,37.9653186 C6.63058172,37.5817452 7.13750693,37.3688366 7.68160665,37.3654571 C8.23415512,37.3654571 8.74108033,37.5749861 9.11789474,37.9551801 C9.49470914,38.335374 9.70085873,38.8439889 9.69578947,39.3880886 C9.68734072,40.4712188 8.83401662,41.3448199 7.75426593,41.3769252 L7.6934349,41.3769252 Z" id="Path"></path>
                <path d="M7.66639889,47.7692521 C7.12229917,47.7624931 6.61875346,47.546205 6.24531856,47.1592521 C5.87188366,46.7706094 5.67249307,46.2569252 5.68601108,45.7111357 C5.71304709,44.6161773 6.59509695,43.7577839 7.6934349,43.7577839 C7.71878116,43.7577839 7.74243767,43.7577839 7.76778393,43.7594737 C8.30850416,43.7797507 8.80529086,44.007867 9.16858726,44.4032687 C9.53526316,44.8020499 9.72113573,45.3224931 9.69409972,45.871662 C9.64171745,46.936205 8.76135734,47.7709418 7.6900554,47.7709418 L7.66639889,47.7692521 Z" id="Path"></path>
                <path d="M7.66639889,60.2581994 C7.12229917,60.2514404 6.61875346,60.0351524 6.24531856,59.6481994 C5.87188366,59.2595568 5.67249307,58.7458726 5.68601108,58.2000831 C5.71304709,57.1051247 6.59509695,56.2467313 7.6934349,56.2467313 C7.71878116,56.2467313 7.74243767,56.2467313 7.76778393,56.2484211 C8.30850416,56.2686981 8.80529086,56.4968144 9.16858726,56.8922161 C9.53526316,57.2909972 9.72113573,57.8131302 9.69409972,58.3606094 C9.64171745,59.4251524 8.76135734,60.2598892 7.6900554,60.2598892 L7.66639889,60.2581994 Z" id="Path"></path>
                <path d="M7.69174515,54.0145706 C7.15271468,54.0145706 6.64747922,53.8067313 6.27066482,53.4316066 C5.89385042,53.0547922 5.68601108,52.5495568 5.68601108,52.0088366 C5.68601108,50.8851524 6.56637119,50.0031025 7.69174515,50.0031025 L7.71540166,50.0031025 C8.26119114,50.0098615 8.76473684,50.2261496 9.13648199,50.6131025 C9.5099169,51.0017452 9.70930748,51.5154294 9.69578947,52.0612188 C9.66875346,53.1426593 8.80022161,53.9993629 7.71709141,54.0128809 L7.69174515,54.0145706 Z" id="Path"></path>
                <path d="M7.6900554,66.530554 C7.65288089,66.530554 7.61401662,66.530554 7.57515235,66.5271745 C6.52412742,66.469723 5.76373961,65.6231579 5.80936288,64.5603047 C5.85160665,63.5363158 6.66099723,62.7640997 7.6934349,62.7640997 C7.71371191,62.7640997 7.73398892,62.7640997 7.75595568,62.7657895 C8.27808864,62.7809972 8.75459834,62.9955956 9.09254848,63.3690305 C9.43725762,63.7492244 9.60623269,64.2527701 9.57074792,64.7901108 C9.49977839,65.798892 8.71066482,66.530554 7.6900554,66.530554 Z" id="Path"></path>
                <path d="M14.0553463,72.5072022 C13.1614681,72.4734072 12.5683657,71.9174792 12.4686704,71.0219114 L12.4652909,70.9712188 C12.4500831,70.5065374 12.6122992,70.0739612 12.924903,69.7529086 C13.2222992,69.445374 13.6210803,69.2763989 14.050277,69.2763989 C14.070554,69.2763989 14.0925208,69.2763989 14.1144875,69.2780886 C15.0286427,69.3135734 15.6352632,69.9032964 15.6994737,70.814072 C15.7298892,71.2517175 15.5778116,71.6859834 15.2787258,72.007036 C14.9796399,72.3280886 14.5572022,72.5105817 14.1195568,72.5105817 C14.09759,72.508892 14.077313,72.508892 14.0553463,72.5072022 Z" id="Path"></path>
                <path d="M7.66470914,72.2030471 C6.9533241,72.1760111 6.4632964,71.7163989 6.38218837,71.0050139 L6.37880886,70.9543213 C6.36698061,70.5808864 6.49878116,70.231108 6.75055402,69.9708864 C6.99218837,69.7208033 7.31831025,69.5822438 7.66808864,69.5822438 C7.6866759,69.5822438 7.70357341,69.5822438 7.72216066,69.5839335 C8.44706371,69.6126593 8.94891967,70.0993075 9.00130194,70.8242105 C9.0266482,71.1807479 8.90160665,71.5339058 8.65828255,71.7941274 C8.41495845,72.054349 8.07193906,72.2047368 7.71540166,72.2047368 C7.69850416,72.2030471 7.68160665,72.2030471 7.66470914,72.2030471 Z" id="Path"></path>
                <path d="M14.084072,17.1594183 C12.5362604,17.1594183 11.2520499,15.893795 11.2216343,14.3392244 C11.2064266,13.5839058 11.5004432,12.8606925 12.0462327,12.3047645 C12.5886427,11.7522161 13.3304432,11.4362327 14.084072,11.4345429 C15.6335734,11.4345429 16.9177839,12.7001662 16.9465097,14.2547368 C16.9617175,15.0100554 16.6693906,15.7332687 16.1219114,16.2891967 C15.5811911,16.8417452 14.8393906,17.1577285 14.084072,17.1594183 Z" id="Path"></path>
                <path d="M14.0756233,36.0423823 C12.5244321,36.0356233 11.2452909,34.7666205 11.2216343,33.2120499 C11.2098061,32.4567313 11.5055125,31.7352078 12.0513019,31.1809695 C12.5920222,30.6318006 13.332133,30.3175069 14.0806925,30.3175069 C15.6420222,30.3242659 16.9228532,31.5932687 16.9448199,33.1461496 C16.9566482,33.9014681 16.6609418,34.6229917 16.1151524,35.1772299 C15.5744321,35.7263989 14.8343213,36.0406925 14.0857618,36.0406925 C14.0874515,36.0423823 14.0756233,36.0423823 14.0756233,36.0423823 Z" id="Path"></path>
                <path d="M14.0654848,29.6483657 C12.5531579,29.6483657 11.2503601,28.3557064 11.2216343,26.826482 C11.1929086,25.2854294 12.4399446,23.9826316 14.0012742,23.9234903 C14.0350693,23.9218006 14.0688643,23.9218006 14.1026593,23.9218006 C15.6149861,23.9218006 16.9177839,25.2144598 16.9465097,26.7436842 C16.9752355,28.2847368 15.7281994,29.5875346 14.1668698,29.6449861 C14.1330748,29.6483657 14.0992798,29.6483657 14.0654848,29.6483657 Z" id="Path"></path>
                <path d="M14.0806925,23.4030471 C12.5311911,23.3996676 11.2486704,22.1323546 11.2233241,20.5777839 C11.2098061,19.8224654 11.5038227,19.0992521 12.0513019,18.5450139 C12.5920222,17.9941551 13.3338227,17.6798615 14.0857618,17.6798615 C15.6420222,17.683241 16.9228532,18.950554 16.9498892,20.5051247 C16.9634072,21.2604432 16.6693906,21.9836565 16.1219114,22.5378947 C15.5811911,23.0887535 14.8393906,23.4030471 14.0891413,23.4030471 C14.0857618,23.4030471 14.0806925,23.4030471 14.0806925,23.4030471 Z" id="Path"></path>
                <path d="M14.084072,10.5254571 C12.6562327,10.5254571 11.4801662,9.36797784 11.4615789,7.94351801 C11.4531302,7.22875346 11.7201108,6.55961219 12.2168975,6.05606648 C12.7103047,5.55590028 13.3743767,5.28047091 14.084072,5.28047091 C15.5119114,5.28047091 16.6879778,6.43795014 16.7065651,7.86240997 C16.7150139,8.57717452 16.4480332,9.24631579 15.9512465,9.7498615 C15.4578393,10.2500277 14.7954571,10.5254571 14.084072,10.5254571 Z" id="Path"></path>
                <path d="M7.6900554,35.1839889 C7.14088643,35.1822992 6.63058172,34.9677008 6.25545706,34.5841274 C5.87864266,34.1988643 5.67756233,33.6868698 5.68601108,33.1410803 C5.70459834,32.0376731 6.5866482,31.1725208 7.6934349,31.1725208 L7.75426593,31.1725208 C8.83570637,31.204626 9.68903047,32.0782271 9.69578947,33.1613573 C9.69916898,33.7054571 9.49470914,34.214072 9.11789474,34.5942659 C8.74108033,34.9761496 8.23415512,35.1839889 7.6900554,35.1839889 Z" id="Path"></path>
                <path d="M7.6934349,28.791662 C6.59509695,28.791662 5.71304709,27.9332687 5.68601108,26.8383102 C5.67249307,26.2925208 5.87019391,25.7788366 6.24531856,25.3901939 C6.61875346,25.003241 7.12229917,24.7869529 7.66470914,24.7801939 L7.68836565,24.7801939 C8.76135734,24.7801939 9.64171745,25.6149307 9.69409972,26.6794737 C9.72113573,27.2269529 9.53526316,27.7490859 9.16858726,28.147867 C8.80529086,28.5432687 8.31019391,28.771385 7.76947368,28.791662 C7.74412742,28.791662 7.71878116,28.791662 7.6934349,28.791662 Z" id="Path"></path>
                <path d="M7.6934349,16.3027147 C6.59509695,16.3027147 5.71304709,15.4443213 5.68601108,14.3493629 C5.67249307,13.8035734 5.87019391,13.2898892 6.24531856,12.9012465 C6.61875346,12.5142936 7.12229917,12.2980055 7.66470914,12.2912465 L7.68836565,12.2912465 C8.76135734,12.2912465 9.64171745,13.1259834 9.69409972,14.1905263 C9.72113573,14.7380055 9.53526316,15.2601385 9.16858726,15.6589197 C8.80698061,16.0543213 8.31019391,16.2824377 7.76947368,16.3027147 C7.74412742,16.3027147 7.71878116,16.3027147 7.6934349,16.3027147 Z" id="Path"></path>
                <path d="M7.69174515,22.5463435 C6.56637119,22.5463435 5.68601108,21.6659834 5.68601108,20.5406094 C5.68601108,19.9998892 5.89385042,19.4946537 6.27066482,19.1178393 C6.64747922,18.7410249 7.15271468,18.5348753 7.69174515,18.5348753 L7.71709141,18.5348753 C8.80191136,18.5483934 9.67044321,19.405097 9.69747922,20.4865374 C9.71099723,21.0323269 9.5132964,21.5460111 9.13817175,21.9346537 C8.76642659,22.3216066 8.26119114,22.5378947 7.71878116,22.5446537 L7.69174515,22.5463435 Z" id="Path"></path>
                <path d="M7.69174515,9.78534626 C6.66099723,9.78534626 5.85160665,9.01313019 5.80936288,7.98914127 C5.76542936,6.92459834 6.52412742,6.07972299 7.57684211,6.02227147 C7.61401662,6.02058172 7.65288089,6.01889197 7.6900554,6.01889197 C8.71066482,6.01889197 9.50146814,6.75055402 9.56905817,7.76102493 C9.60623269,8.29836565 9.43556787,8.80360111 9.09085873,9.18210526 C8.75121884,9.55554017 8.27639889,9.7701385 7.75088643,9.78534626 C7.73398892,9.78534626 7.71202216,9.78534626 7.69174515,9.78534626 Z" id="Path"></path>
                <path d="M14.050277,3.27473684 C13.6210803,3.27473684 13.2222992,3.10576177 12.924903,2.79822715 C12.6139889,2.47548476 12.4500831,2.04290859 12.4652909,1.5799169 L12.4669806,1.54443213 C12.5683657,0.631966759 13.1614681,0.0777285319 14.0553463,0.0422437673 C14.077313,0.0422437673 14.09759,0.0405540166 14.117867,0.0405540166 C14.5572022,0.0405540166 14.9796399,0.224736842 15.2787258,0.544099723 C15.5761219,0.863462604 15.7298892,1.29772853 15.6994737,1.73706371 C15.6352632,2.64783934 15.0286427,3.23587258 14.1144875,3.27304709 C14.0925208,3.27473684 14.070554,3.27473684 14.050277,3.27473684 Z" id="Path"></path>
                <path d="M7.66808864,2.96889197 C7.31831025,2.96889197 6.99387812,2.83033241 6.75055402,2.58024931 C6.49878116,2.3200277 6.36698061,1.97024931 6.37880886,1.5968144 L6.38218837,1.54612188 C6.46160665,0.834736842 6.9533241,0.375124654 7.66301939,0.348088643 C7.6799169,0.348088643 7.6968144,0.346398892 7.71371191,0.346398892 C8.07024931,0.346398892 8.41495845,0.495096953 8.6565928,0.75700831 C8.8999169,1.01722992 9.0232687,1.37038781 8.99961219,1.72692521 C8.94891967,2.45182825 8.44537396,2.93847645 7.71878116,2.96720222 C7.70357341,2.96889197 7.6866759,2.96889197 7.66808864,2.96889197 Z" id="Path"></path>
            </g>
        </g>
    </g>
</svg>